<?xml version="1.0" encoding="utf-8"?>
<!-- Generator: Adobe Illustrator 22.1.0, SVG Export Plug-In . SVG Version: 6.00 Build 0)  -->
<svg version="1.1" id="レイヤー_1" xmlns="http://www.w3.org/2000/svg" xmlns:xlink="http://www.w3.org/1999/xlink" x="0px"
	 y="0px" viewBox="0 0 27.496 27.496" enable-background="new 0 0 27.496 27.496" xml:space="preserve">
<g id="楕円形_1_2_">
	<g>
		<path fill="#D94236" d="M13.748,1.308c6.859,0,12.44,5.581,12.44,12.44c0,6.859-5.581,12.44-12.44,12.44s-12.44-5.581-12.44-12.44
			C1.308,6.889,6.889,1.308,13.748,1.308 M13.748,0.308c-7.423,0-13.44,6.017-13.44,13.44c0,7.423,6.017,13.44,13.44,13.44
			c7.423,0,13.44-6.017,13.44-13.44C27.188,6.325,21.171,0.308,13.748,0.308L13.748,0.308z"/>
	</g>
</g>
<g>
	<path fill="#D94236" d="M9.54,9.864c0.049-0.208,0.342-1.282,0.354-1.465c0.073-0.122,0.073-0.171,0.098-0.378
		c0.049-0.403,0.195-1.245,0.195-1.624c0-0.122,0.012-0.684,0.012-0.757c-0.049-0.781-0.073-0.793-0.22-0.964
		c-0.024-0.024-0.098-0.11-0.146-0.183C9.638,4.346,9.345,4.126,9.406,3.895c0.085-0.024,0.5-0.159,0.586-0.159
		c0.171,0,0.293,0.122,0.513,0.33c0.049,0.049,0.305,0.183,0.354,0.208c0.146,0.098,0.281,0.208,0.403,0.33
		c0.024,0.098,0.037,0.134,0.037,0.171c0,0.073-0.11,0.415-0.11,0.464c0,0.073,0.037,0.391,0.037,0.464v0.867
		c0,0.037-0.037,0.256-0.037,0.305c0,0.269-0.269,1.624-0.513,2.344c-0.061,0.195-0.513,1.563-0.769,1.904
		c-0.293,0.391-0.562,0.708-0.928,1.025c-0.171,0.085-0.403,0.22-0.5,0.22c-0.061,0-0.146-0.049-0.146-0.122
		s0.354-0.684,0.403-0.745c0.269-0.391,0.305-0.427,0.513-0.903C9.32,10.438,9.503,9.998,9.54,9.864z M14.533,4.59
		c0.098,0.11,0.208,0.208,0.208,0.293c0,0.024-0.208,0.452-0.232,0.5c-0.073,0.159-0.073,0.903-0.073,1.099
		c0,0.122,0.024,0.623,0.024,0.732c0,0.342,0,0.623-0.061,0.83c0.023,0.11,0.049,0.195,0.049,0.256c0,0.537,0.012,0.586-0.049,0.928
		c-0.013,0.11-0.049,0.623-0.086,0.72c-0.012,0.061-0.146,0.403-0.378,0.562c-0.256-0.024-0.378-0.024-0.452-0.305
		c-0.012-0.061-0.134-0.391-0.134-0.439c0-0.024,0.012-0.085,0.037-0.146c-0.012-0.073,0.037-1.16,0.037-1.318
		c0-0.183,0.073-0.952,0.073-1.111c0-0.146-0.012-0.83-0.012-0.964c0-0.11-0.037-0.598-0.037-0.696c0-0.378,0-0.952-0.134-1.111
		c-0.122-0.146-0.537-0.183-0.5-0.403c0.183-0.159,0.427-0.171,0.696-0.171s0.94,0.586,1.013,0.671L14.533,4.59z M18.097,7.508
		c0,0.049,0.036,0.903,0.036,0.94c0,0.049-0.036,0.867-0.036,0.916c0,0.061,0.024,0.781,0.024,0.842
		c0,0.073,0.012,0.806,0.012,0.854c0,0.061-0.012,0.537-0.012,0.635c0.049,0.745-0.244,1.819-0.464,1.965
		c-0.269-0.134-0.306-0.488-0.329-0.72c-0.025-0.256-0.074-0.891-0.074-0.964v-0.439c0-0.073-0.036-0.378-0.036-0.439
		c0-0.159,0.049-0.879,0.049-1.025l-0.049-2.124V7.703c-0.024-0.098-0.013-0.72-0.013-0.891l0.013-1.05
		c0-0.11-0.062-0.623-0.062-0.732c-0.012-0.317-0.072-1.563-0.231-1.843c-0.11-0.183-0.488-0.317-0.501-0.537
		c0.416-0.22,0.465-0.244,0.599-0.244c0.231,0,0.28,0.049,0.599,0.342c0.072,0.061,0.512,0.293,0.573,0.366
		c0.036,0.037,0.366,0.476,0.366,0.574c0,0.073-0.171,0.232-0.342,0.391c-0.024,0.037-0.109,0.183-0.109,0.562
		c0,0.085,0.012,0.476,0.012,0.549c0,0.061-0.037,0.354-0.037,0.391s0.025,0.244,0.025,0.293c0,0.061-0.013,0.366-0.013,0.427v0.098
		V7.508z"/>
	<path fill="#D94236" d="M9.125,21.661c0.171-0.244,0.903-1.343,1.062-1.563c0.22-0.28,0.757-1.208,0.757-1.611
		c0-0.013,0-0.098-0.037-0.122s-0.244-0.073-0.293-0.073c-0.012,0-0.488,0.146-0.525,0.159c-0.171,0.072-0.598,0.146-0.659,0.146
		c-0.146,0-0.427-0.159-0.732-0.318c-0.073-0.036-0.391-0.109-0.439-0.146v-0.098c0.024-0.012,0.098-0.023,0.122-0.023
		c0.073,0,0.391-0.025,0.464-0.025c0.537,0,0.574,0,1.196-0.183l0.952-0.28l0.037-0.025c0.012-0.098,0.024-0.195,0.024-0.354
		c0-0.086-0.024-0.525-0.024-0.574c0-0.244,0-0.28-0.049-0.391c0.012-0.195,0.024-0.342,0.024-0.439
		c0-0.109-0.037-0.586-0.146-0.695c-0.024-0.024-0.159-0.171-0.183-0.207c-0.049-0.037-0.293-0.184-0.305-0.232l-0.012-0.024
		c0-0.024,0.037-0.073,0.061-0.098c0.11,0.049,0.671,0.073,0.781,0.122c0.22,0.085,0.867,0.33,0.867,0.721
		c0,0.085,0,0.085-0.098,0.268c-0.024,0.037-0.012,0.281-0.024,0.33c-0.037,0.158-0.073,0.293-0.073,0.366
		c0,0.134-0.024,0.72-0.012,0.843c0.11,0.036,0.61,0.061,0.708,0.085c0.061,0.024,0.134,0.062,0.159,0.11
		c0.024,0.061,0.049,0.219,0.049,0.28c0,0.134-0.403,0.208-0.452,0.208c-0.33,0.036-0.354,0.036-0.598,0.158
		c0,0.109,0,0.171,0.024,0.22c0.061,0.11,0.171,0.269,0.256,0.403c0,0.061-0.085,0.342-0.122,0.427
		c-0.012,0.062-0.073,0.28-0.073,0.366c0.098,0.049,0.5,0.33,0.598,0.379c0.171,0.098,0.647,0.342,0.781,0.476
		c0.208,0.208,0.403,0.476,0.403,0.573c0,0.037-0.049,0.208-0.049,0.232c0,0.012,0.012,0.109,0.012,0.122
		c-0.024,0.122-0.085,0.257-0.22,0.257c-0.049,0-0.061,0-0.183-0.037c-0.037-0.012-0.195-0.012-0.22-0.037
		c-0.11-0.121-0.378-0.427-0.5-0.512c-0.146-0.123-0.415-0.403-0.488-0.525c-0.171-0.269-0.183-0.293-0.317-0.415l-0.037,0.073
		c0.012,0.098,0.012,0.122-0.024,0.195c0.012,0.024,0.024,0.109,0.024,0.135c0,0.085-0.049,0.598-0.049,0.707
		c0,0.037,0.024,0.172,0.024,0.195c0,0.159-0.024,0.83-0.024,0.977c0,0.025,0.049,0.342,0.049,0.403
		c0,0.183-0.037,0.977-0.037,1.136c0,0.085-0.024,0.316-0.024,0.402c-0.012,0.098-0.122,0.623-0.159,0.708
		c-0.012,0.024-0.061,0.062-0.098,0.062c-0.073,0-0.354-0.146-0.586-0.599c-0.024-0.049-0.098-0.306-0.122-0.342
		c-0.012-0.036-0.037-0.183-0.037-0.208c0-0.023,0-0.049,0.024-0.085c0.11-0.098,0.11-0.098,0.122-0.28
		c0-0.025,0.085-0.221,0.085-0.27c0.024-0.134,0.122-0.756,0.122-0.842c0-0.184,0.061-1.025,0.073-1.196l0.012-0.22
		c0.024-0.135,0.037-0.244,0.037-0.342c0-0.073-0.012-0.098-0.037-0.146l-0.11,0.158c-0.098,0.221-0.562,0.758-0.891,1.051
		c-0.11,0.098-0.439,0.451-0.574,0.609c-0.122,0.146-0.964,0.867-1.208,0.867c-0.024,0-0.037-0.012-0.134-0.037
		c-0.024-0.012-0.098,0-0.122,0.013l-0.037-0.049c0.012-0.024,0.256-0.257,0.281-0.269c0.024-0.024,0.208-0.109,0.22-0.135
		c0.305-0.354,0.342-0.391,0.464-0.549L9.125,21.661z M12.726,17.816c0.171-0.025,0.977-0.025,1.135-0.037
		c0.195-0.024,1.075-0.232,1.257-0.244c0.208-0.024,1.294-0.244,1.685-0.317c0.037-0.488-0.049-1.758-0.061-1.892
		c-0.037-0.428-0.074-0.477-0.367-0.745c-0.023-0.024-0.316-0.232-0.354-0.232c-0.232-0.037-0.256-0.037-0.281-0.098
		c0.074-0.159,0.379-0.159,0.574-0.159c0.366,0,0.415,0.024,1.147,0.342c0.024,0.024,0.085,0.037,0.098,0.049
		c0.231,0.232,0.366,0.354,0.366,0.573c0,0.123-0.232,0.647-0.232,0.758c0,0.061-0.061,0.354-0.061,0.365
		c0,0.11-0.024,0.563-0.024,0.647c0,0.073,0,0.11,0.024,0.244l0.098-0.024c0.073-0.122,0.158-0.269,0.598-0.269
		c0.074,0,0.843,0.085,1.074,0.317l0.074,0.244c-0.025,0.049-0.037,0.086-0.146,0.195c-0.074,0.012-0.354,0.171-0.428,0.171
		c-0.207,0-0.232,0-0.451,0.049c-0.025,0.013-0.062,0.013-0.098,0.013c-0.086,0-0.488-0.074-0.574-0.074
		c-0.037,0-0.109,0.013-0.122,0.013c-0.036,0.159-0.036,0.183-0.036,0.22c0,0.269-0.025,1.489-0.025,1.746
		c0,0.061,0.025,0.354,0.025,0.414l-0.025,1.563c0,0.098,0.013,0.488,0,0.563l-0.061,1.11c0,0.049,0.024,0.257,0.024,0.306
		c0,0.622-0.231,1.146-0.329,1.195s-0.257,0.135-0.367,0.232c-0.023,0.024-0.121,0.146-0.146,0.158
		c-0.036,0.013-0.061,0.013-0.085,0.013c-0.073,0-0.098-0.024-0.317-0.183c-0.037-0.062-0.135-0.367-0.184-0.403
		c-0.121-0.098-0.378-0.317-0.512-0.452l-0.11-0.183c-0.28-0.269-0.306-0.293-0.464-0.378c-0.146-0.086-0.378-0.232-0.427-0.27
		c0.025,0,0.074-0.023,0.098-0.023c0.049,0,0.745,0.134,0.83,0.146c0.074,0,0.586,0.085,0.623,0.085c0.086,0,0.5,0.013,0.586,0.013
		c0.061-0.159,0.086-0.244,0.086-0.635c0-0.195,0.012-0.367,0.012-0.439c0-0.049,0.024-0.257,0.024-0.306
		c0-0.013-0.024-0.306-0.024-0.317c0-0.037,0.024-0.244,0.024-0.281c0-0.061-0.024-0.316-0.024-0.378l0.012-1.758
		c0-0.476-0.012-1.196-0.061-1.66c-0.024-0.013-0.061-0.024-0.086-0.024c-0.049,0-1.672,0.354-1.745,0.366
		c-0.049,0.013-0.647,0.171-0.769,0.208c-0.11-0.025-0.11-0.025-0.318-0.025c-0.049,0-0.574-0.244-0.696-0.256
		c-0.317-0.037-0.33-0.037-0.488-0.184L12.726,17.816z M14.667,19.451c0.074,0.037,0.427,0.123,0.5,0.146
		c0.073,0.037,0.195,0.146,0.342,0.281c0.122,0.232,0.366,0.854,0.366,0.916c0,0.061,0.049,0.316,0.049,0.378
		c0,0.146-0.098,0.708-0.269,0.708c-0.11,0-0.171-0.049-0.415-0.22c-0.061-0.146-0.232-0.317-0.292-0.464
		c-0.073-0.146-0.305-0.842-0.366-0.977c-0.062-0.122-0.269-0.488-0.635-0.732c-0.073-0.061-0.073-0.086-0.049-0.184
		C14.105,19.317,14.448,19.366,14.667,19.451z"/>
</g>
<g>
</g>
<g>
</g>
<g>
</g>
<g>
</g>
<g>
</g>
<g>
</g>
</svg>
